PathFileType	4	(X/Y/Z)	s10c0302.trc
DataRate	CameraRate	NumFrames	NumMarkers	Units	OrigDataRate	OrigDataStartFrame	OrigNumFrames
200	200	4	50	mm	200	250	2000
Frame#	Time	racr			lacr			c7			jug			rlel			rdr			llel			ldr			s2			lic			ric			lasi			rasi			rpsi			lpsi			rgt			lgt			rth1			rth2			rth3			rth4			rlfc			rmfc			rsh1			rsh2			rsh3			rsh4			rlmal			rmmal			rcal			rtoe			rmt5			lth1			lth2			lth4			lth3			llfc			lmfc			llmal			lmmal			lcal			lmt5			lsh1			lsh2			lsh3			lsh4			ltoe			SBIKE			LBIKE			RBIKE			
		X1	Y1	Z1	X2	Y2	Z2	X3	Y3	Z3	X4	Y4	Z4	X5	Y5	Z5	X6	Y6	Z6	X7	Y7	Z7	X8	Y8	Z8	X9	Y9	Z9	X10	Y10	Z10	X11	Y11	Z11	X12	Y12	Z12	X13	Y13	Z13	X14	Y14	Z14	X15	Y15	Z15	X16	Y16	Z16	X17	Y17	Z17	X18	Y18	Z18	X19	Y19	Z19	X20	Y20	Z20	X21	Y21	Z21	X22	Y22	Z22	X23	Y23	Z23	X24	Y24	Z24	X25	Y25	Z25	X26	Y26	Z26	X27	Y27	Z27	X28	Y28	Z28	X29	Y29	Z29	X30	Y30	Z30	X31	Y31	Z31	X32	Y32	Z32	X33	Y33	Z33	X34	Y34	Z34	X35	Y35	Z35	X36	Y36	Z36	X37	Y37	Z37	X38	Y38	Z38	X39	Y39	Z39	X40	Y40	Z40	X41	Y41	Z41	X42	Y42	Z42	X43	Y43	Z43	X44	Y44	Z44	X45	Y45	Z45	X46	Y46	Z46	X47	Y47	Z47	X48	Y48	Z48	X49	Y49	Z49	X50	Y50	Z50	
250	1.2500	397.724556	1288.736313	-48.277919	410.988809	1302.069888	-382.657667	380.795088	1342.817771	-215.298883	398.461633	1200.877027	-212.756077	491.073570	1044.321018	11.154835	643.283771	875.294966	-50.352476	480.404354	1040.453253	-465.758323	640.431920	882.011822	-413.382139	-116.761737	1104.260213	-212.829154	46.525719	1095.339919	-365.456966	68.435046	1095.318205	-88.485404	63.388823	1005.761478	-342.323060	61.112846	1021.014449	-83.445808	-66.596496	1154.843555	-160.304429	-59.775731	1153.140925	-269.369380	-59.629160	1018.877440	-16.349314	-76.818064	982.834093	-409.345177	31.282812	928.098139	14.197456	120.374389	925.832983	7.761312	192.744811	880.158117	5.517384	129.313794	961.475588	-2.884418	304.886929	842.370014	-10.063645	307.294205	836.551862	-127.589931	252.973902	735.508262	3.080486	256.611161	648.639289	-17.760842	216.610462	573.724802	-33.467747	287.704365	647.500492	-39.692248	196.617848	474.455258	-61.021210	224.461362	499.058034	-136.026050	146.341452	453.747578	-109.145885	387.703268	433.292296	-105.258455	305.492918	406.569687	-43.110974	-10.124690	870.456877	-436.862652	65.457834	827.493191	-434.694724	90.812302	852.796580	-425.196165	110.408015	750.565862	-435.738558	183.806053	663.622157	-424.323854	196.464994	657.090067	-305.654424	-42.951397	366.815107	-380.071338	-21.747599	363.730988	-301.989646	-99.903849	366.790237	-331.203470	15.507462	235.516143	-399.926981	93.487565	576.486735	-439.725421	73.249304	493.122034	-419.675977	9.930453	431.796744	-405.525057	101.248102	483.289909	-395.804322	102.395700	215.889762	-345.456915	-218.125466	832.090024	-214.212859	-103.944451	80.437593	-418.261962	-103.930190	80.435122	-18.337279	
251	1.2550	397.661586	1288.738261	-48.241715	411.005689	1302.071084	-382.590155	380.774525	1342.817109	-215.277183	398.444971	1200.897361	-212.696649	491.059134	1044.325824	11.168728	643.270897	875.295714	-50.329034	480.424369	1040.466497	-465.739564	640.408633	882.011681	-413.387960	-116.775459	1104.264222	-212.835070	46.522592	1095.378144	-365.451732	68.354947	1095.281111	-88.480682	63.393619	1005.805028	-342.294418	61.083442	1021.002948	-83.435135	-66.612893	1154.841853	-160.302137	-59.824316	1153.137237	-269.339673	-59.703926	1018.854492	-16.367728	-76.827787	982.857985	-409.336710	31.230263	928.022761	14.197517	120.291317	925.743626	7.779697	192.687786	880.084032	5.539798	129.283076	961.410136	-2.834835	304.823420	842.267748	-10.035927	307.285503	836.488450	-127.551066	252.917766	735.461902	3.107601	256.556391	648.559356	-17.753766	216.537884	573.679871	-33.451755	287.638931	647.396762	-39.682998	196.562425	474.371623	-61.054777	224.444158	499.043943	-136.023346	146.314238	453.686428	-109.152980	387.682050	433.280660	-105.279898	305.445900	406.513209	-43.136177	-10.123973	870.482518	-436.879778	65.463311	827.530079	-434.725509	90.836958	852.822485	-425.206899	110.418419	750.581241	-435.758201	183.805045	663.653655	-424.360676	196.435101	657.081459	-305.711729	-42.930481	366.857848	-380.066274	-21.680475	363.759034	-302.027323	-99.896040	366.827544	-331.218133	15.503200	235.559028	-399.905640	93.488976	576.511818	-439.726170	73.251774	493.168383	-419.734829	9.947850	431.834267	-405.538870	101.261073	483.343015	-395.849712	102.379134	215.908063	-345.474000	-218.124805	832.087503	-214.199546	-103.976772	80.414489	-418.272201	-103.958444	80.439511	-18.341336	
252	1.2600	397.599390	1288.754063	-48.186929	411.025033	1302.076234	-382.507366	380.770247	1342.822603	-215.239180	398.435508	1200.904147	-212.636456	491.069699	1044.343127	11.196934	643.303788	875.288495	-50.315122	480.440387	1040.468181	-465.709638	640.406915	882.001160	-413.376019	-116.769489	1104.271028	-212.806732	46.536948	1095.389597	-365.420758	68.289637	1095.264296	-88.471312	63.402887	1005.807608	-342.289245	61.049998	1020.963311	-83.442813	-66.597749	1154.856906	-160.290469	-59.829662	1153.152746	-269.337837	-59.730703	1018.834097	-16.389500	-76.824792	982.873786	-409.338718	31.174311	927.928113	14.165138	120.221226	925.685873	7.813255	192.636498	880.002603	5.574801	129.269280	961.313787	-2.789166	304.760524	842.185116	-9.976261	307.298561	836.473845	-127.537471	252.878296	735.384589	3.151112	256.519001	648.438281	-17.710367	216.476795	573.594337	-33.440265	287.589400	647.343955	-39.667833	196.524998	474.296427	-61.083089	224.385796	498.986289	-136.006350	146.307424	453.595346	-109.168106	387.659834	433.280763	-105.304688	305.427162	406.475715	-43.151481	-10.095428	870.524083	-436.898628	65.465848	827.574770	-434.740148	90.845296	852.856386	-425.198775	110.447522	750.616950	-435.757131	183.838443	663.675846	-424.387312	196.420699	657.094151	-305.769256	-42.905491	366.890363	-380.071363	-21.639971	363.779402	-302.051666	-99.893633	366.882615	-331.222189	15.493659	235.599304	-399.893752	93.499714	576.534809	-439.750750	73.275280	493.190393	-419.723497	9.967517	431.850144	-405.545843	101.279822	483.407849	-395.845077	102.365067	215.900332	-345.458530	-218.132171	832.079088	-214.215976	-103.983580	80.427686	-418.296195	-103.975289	80.428789	-18.349393	
253	1.2650	397.576827	1288.774041	-48.124502	411.034999	1302.095243	-382.442485	380.763399	1342.808473	-215.192134	398.430880	1200.905618	-212.559190	491.090362	1044.340359	11.246830	643.278277	875.301568	-50.349340	480.461181	1040.479507	-465.680128	640.406725	882.017565	-413.399175	-116.800924	1104.257911	-212.786009	46.552123	1095.399403	-365.408143	68.269785	1095.269017	-88.445989	63.383047	1005.827693	-342.269140	61.029632	1020.950363	-83.445561	-66.637659	1154.840773	-160.258730	-59.836190	1153.152442	-269.318541	-59.744138	1018.789002	-16.386311	-76.824361	982.889498	-409.311981	31.144936	927.877988	14.179287	120.216550	925.592531	7.844827	192.610570	879.957779	5.605179	129.231736	961.276995	-2.747786	304.717387	842.130665	-9.941049	307.288095	836.428222	-127.509005	252.810015	735.320052	3.181663	256.484029	648.401225	-17.656183	216.399721	573.553116	-33.428070	287.534958	647.295106	-39.617516	196.510922	474.238662	-61.081587	221.577335	497.802042	-136.481695	146.289952	453.501432	-109.133804	387.653584	433.261612	-105.300338	305.411171	406.448662	-43.146411	-10.091481	870.563011	-436.883555	65.494400	827.680626	-434.790179	90.842863	852.895169	-425.209820	110.454289	750.671812	-435.797379	183.851715	663.716071	-424.424119	196.438358	657.118469	-305.798789	-42.891324	366.924040	-380.094719	-21.621804	363.820054	-302.050769	-99.876606	366.931197	-331.232132	15.491880	235.611249	-399.889952	93.506364	576.598092	-439.773069	73.286449	493.231367	-419.764580	9.982315	431.896153	-405.568299	101.296000	483.381602	-395.883405	102.365058	215.921396	-345.451627	-218.136514	832.073453	-214.203492	-103.969364	80.431519	-418.304721	-103.967779	80.409532	-18.370631	
